<?xml version="1.0" encoding="UTF-8"?><svg id="Layer_1" xmlns="http://www.w3.org/2000/svg" xmlns:xlink="http://www.w3.org/1999/xlink" viewBox="0 0 320 320"><defs><style>.cls-1{fill:#52658b;}.cls-2{fill:none;}.cls-3{clip-path:url(#clippath);}</style><clipPath id="clippath"><rect class="cls-2" width="320" height="320"/></clipPath></defs><g class="cls-3"><path class="cls-1" d="M102.37,101.36h-54.87v-15h54.87v15ZM149.71,120.91v-46.82s0-15.46-14.96-15.46h-14.96l-31.17-38.64v38.64h-43.65s-14.96,0-14.96,15.46v46.82s0,15.45,14.96,15.45h89.78s14.96,0,14.96-15.45M105,197.5h50v-15h-50v15ZM105,225h50v-15h-50v15ZM267.6,196.15h-79.81v-15h79.81v15ZM187.79,211.15h54.87v15h-54.87v-15ZM290,238.42v-61.82c0-15.45-14.96-15.45-14.96-15.45h-30.04v-92.25s0-4.32-4.32-4.32h-75.97v15.86h65.29v80.71h-44.75c-14.96,0-14.96,15.45-14.96,15.45v61.82c0,.72.06,1.36.12,2.01h-105.41v-89.07h-15v101.66s0,4.32,4.32,4.32h174.57v35.16s31.18-38.64,31.18-38.64h14.96c14.96,0,14.96-15.46,14.96-15.46M165.04,110h35v-15h-35v15ZM200.04,122.5h-35v15h35v-15Z"/></g></svg>